/* XPM */
static char * wmsystemtray_xpm[] = {
"30 30 9 1",
" 	c #020202",
".	c #F6F2FE",
"+	c #C6C6C6",
"@	c #AEAAAE",
"#	c #575557",
"$	c #AAAAAA",
"%	c #555555",
"&	c #82828A",
"*	c #000000",
"                              ",
" ............ + ............ +",
" .@@@#@@@@@@@ + .@@@@@@@#@@@ +",
" .$$%%$$$$$$$ + .$$$$$$$%%$$ +",
" .@#%%%%#%%$$ + .@@%%%%#%%%$ +",
" .$%%%%%%%%$$ + .$$%%%%%%%%$ +",
" .@@%%$$@$$$$ + .@@$$$$@%%$$ +",
" .$$$%$$$$$$$ + .$$$$$$$%$$$ +",
" &            + &            +",
"++++++++++++++++++++++++++++++",
"                              ",
" ............ + ............ +",
" .@@@*@@@@@@@ + .@@@@@@@*@@@ +",
" .$$**$$$$$$$ + .$$$$$$$**$$ +",
" .@********$$ + .@@********$ +",
" .$********$$ + .$$********$ +",
" .@@**$$@$$$$ + .@@$$$$@**$$ +",
" .$$$*$$$$$$$ + .$$$$$$$*$$$ +",
" &            + &            +",
"++++++++++++++++++++++++++++++",
"                              ",
"             &+             &+",
"  $$$*$$$$$$$.+  $$$$$$$*$$$.+",
"  @@**@@@@@@@.+  @@@@@@@**@@.+",
"  $********@$.+  $$********$.+",
"  @********@@.+  @@********@.+",
"  $$**@$$@@@$.+  $$@@@$$**@$.+",
"  @@@*@@@@@@@.+  @@@@@@@*@@@.+",
" &............+ &............+",
"++++++++++++++++++++++++++++++"};
