/* XPM */
static char *tile_xpm[] = {
/* width height ncolors chars_per_pixel */
"64 64 36 1",
/* colors */
"  c #000000",
". c #663399",
"X c #999999",
"o c #333366",
"O c #669966",
"+ c #CC9999",
"@ c #CCCCFF",
"# c #003333",
"$ c #663366",
"% c #999966",
"& c #FFCCFF",
"* c #333333",
"= c #336699",
"- c #9966CC",
"; c #CCCCCC",
": c #663333",
"> c #666699",
", c #99CC99",
"< c #FFCCCC",
"1 c #333300",
"2 c #336666",
"3 c #996699",
"4 c #CCFFFF",
"5 c #666666",
"6 c #6699CC",
"7 c #FFFFFF",
"8 c #000033",
"9 c #336633",
"0 c #996666",
"q c #9999CC",
"w c #CCFFCC",
"e c #330033",
"r c #666633",
"t c #333399",
"y c #669999",
"u c #FFFFCC",
/* pixels */
"777777777777777777777777777777777777777777777777777777777777777 ",
"7<4<4<4<4<4<4<4<4<4<4<4<4<4<4<4<4<4<4<4<4<4<4<4<4<4<4<4<4<4<4<2 ",
"74XXqXXXqXXXqXXXqXXXXXXXXXXXXX3XXX3XXy3XXy3X3yX3X>X3y0y3y0>X>%$ ",
"77+qXXqqXqXqXqXXXqXXXqXXXXqXyXXXyXyX3Xy3y3XyX>X>OXy3y3y3yX>X5y5 ",
"7@X,q+X,XXXXXXXqXXXXXXXXX3XX3XyX3X3yXX3yXy3X3yX3X3O3OX>%>0>%>32 ",
"u7XqXqXqXqXqXqXXXXXqXqX3X6XXyX3XyXyX>XX3X3yXy0y0yX>X>X>X>Xy3O>r ",
"77XXqXX+qXXXXXXqXXXX>XyXXX3X3XXX3X3XXy3yXO3y3y3y3O3y0y0y3O>03y$ ",
"@7XqXqXqXXXqXqXXXXqXXXX-yXyXyX>XyXy3y3O3X>XXO3XX>X>X5X>X53y>O32 ",
"7uqXXXXXXXXXXXXX3yXXXXXX3XXX3XXy3X3yXXXy3X3>Xy5X5X>%>X>53O3O355 ",
"47XXXqXqXqXqXXqXXq3XX3yXXXyXyXy3X>XX>X3y%>y%y3X3y0y3y3O3y3>3O3o ",
"7&XXqXXXXXXXXXXXyXXX6X3X3X3X3X3yXX3y3y3X>X33y0>O3y3O3O>O3O>O3y* ",
"u7XXXqXqXqXqXXX-XXy3XXyXyXyXyXy3Xyy0XXy3y%y3y3yX5X5X53y353y3O>2 ",
"74XqXXXXXXXXXXyXXXXX3XXX3X3y3X3y3X3yX>%>X3y%>%>X>X>y3O3O>O3535$ ",
"&7XXXqXqXX3yX-XXX3X6XXy3yXX3XyXXyXy3X>X3y3y3y3y0y3O353y3>3O>O>9 ",
"77XXXXXXXqXXXXXyqX3X3X3XXy3y3X3y33%y3O3y0y0y3O3y35>y3O>O3O3>0>$ ",
"<4XXXqXXXXXqXyX3XyXyXyXyX3y3Xyy0yXy3yXy3y3y3O3O>O3O353O3>>O>O>9 ",
"77XXXXXqXyX3XXXX3XXX3X3y3yXX3y3XX>X0X>X5X5X53y3>0y3y5y3O0>0>0>: ",
"4&Xqq3yXX3XXX>XyXXy3y3yXX3Xy%3y3OX>X>%>X>X>Xy3O3y353y35>y5y>y52 ",
"7uXXXXXXqXyXXX-X3X3XXX3y3y3X3yX3y3y3y03O3O353O>O3O>50y0>530>0>: ",
"&7yXXXq3yXX3yXyXyXyXyXy3XyX>y3O3y3y%>yyX5X>XO>X>>3O3y>y5y5y5y52 ",
"74XXXXXXXXXX3X3X3X3y3X3yX3%y3XX5X3y0>%3>3O>5353O0y>O0>0>0>50>5$ ",
"u73XX-yXX3yXXXyXy3XXy3yXy3y3OX>X>%>X>X5yy3y3y>O3y>0>y5y5y0y>5y* ",
"7@XXXXXXyX3X>X3X3yX>XX3%3y3X>X>X>%>X3O3X5y0y3O3535X5>035>5>0>0$ ",
"77XqXyX3XX6XXXyXX>XX3yy3y0yX>X5X>X>%>y5X>3O35>y3O>5>O>O>0y5>O>9 ",
"7;XXX3Xy3X3X>X3yXy3yX3Xy3Xy0X>X53O3y30>O3O>y0y0y>0X>0>>O>535>5o ",
"77XXXyXXyXyXX3yX3XX3y0y3OX>X>X>Xy3O>>Xy3O3>3O3>5y5>5>O0>0>O5>%* ",
"7@X3XX3X3y3y3yX3yX5X3y3X>%>X5X5X>%>%3O>53y5>0>%>53O35>5>55>5>5* ",
"u7XXyXyXyXX3XXy3y3yXy3yX>X>X>X>X5y3y53y3O>X5y>53O>5y5>%>5y535>* ",
"7@XX3X3X3X3yX>XX%>X>%X>%>%>%>%>%>3>O3O>535>O35X53>50>5>535>O55$ ",
"77yXyXy3yXy3XXy3y3y3X>X>X3y>X>y3O3O353y3y>%>y5>5>%>O>O>O>55>5>9 ",
"7<3X3yXX3yX>X>%3Xy0X>%>X5X>%3O353y3y>O350>0>53O>55>350>555>5>5* ",
"47yXXX>XX>XXX3yXy3y3yX>X>y3y5X>XO3>5X>O>yO>O>5y5>y5>5>535>O55>* ",
"7&Xy3yXy3X3O3y3O3XO3O0y0>%>%>3>O>O3y0>0>0>0>0y05>05O>55O>0>555* ",
"u7y3y3X3XyXyX>X3yX>X>X>XyX>3O3O3y35>O3y>O>5y5>>0>O>>5>5>5>535>* ",
"7@XXXy3y3y33y%3y35X>X53O353O3y5>3O35350>0>X5355y55355O>55555>5* ",
"7uX3y3y%X3OXy3y0yX>X5X>X5X>y53y3O>O>O>y>O>5>5y5>5>5>5>5>5>5>55o ",
"7@Xy3XX>Xy3y3yX5X5X5X>3O3y3O3O0>0>35355353O5>0>50O>5355555555>* ",
"7u3Xy3yXy3y3%X>X>X>X>%y>53O3>3y>O>O>O3y5y5>35y55>>555>5>O>5>55* ",
"743y0X33O3X>y0>%3O3O3>3O3y5y5y0>0>35>5>0>5>5>535>5>5>555>5555>* ",
"&uXXy3yXy3OX3yX>y3y>O3O>>3O33>O>O>O>>%>5y5>O555y55O5O>5>5>5>55* ",
"743y3X0y3X>%>%>%>%>%>X>%>O3O5>0>0>0O55>0>50>>0>5>0>5555555555>* ",
"&uy3%y>X>X>X>X5X>X>3O3>3O3y>>%>>Oy5>3>5y5>O55>555>5>5>>5>55>55* ",
"773y3y3%>%>%>X>0>O3O>O3O>535X53535>O>O35>0>5>5>5>555555555>555* ",
"@7OXy3yX>X>X>%>y%>>3y35>X>y5>5yO>y5355>55>505>O55>5>5>55>55525* ",
"7u35X3O3>%>%>3>%>O3O3O3O0>0>%>50>0>O>5>O>5>O>5355555555>5555.5* ",
"7&yX>X>XyX5X>%y353y35>y>5y5>O3>5y5>53553555>555>5>5>5>5555>555* ",
"7w3X>%>0>0>X>O3y>O353O35>0>X55>0>555>O>55>55>5555555555.55o5$5* ",
"773O>X>XyXOX5>y0>3O>O>y0y5y5>5y5y5>X555>535>5>5>5>5>5>55255525# ",
"7;X>3O3O353>0y3O3O3>0>0>0>50y0>5>0>5>5355O55555555555555.555$5* ",
"77>Xy3O>y3O>y35>y3O>y5y5y0y>>5>O>55>555>5>5>5>5>5>5>5$=55525=5* ",
"7u>%>%3X>O3y0y0>0>535>0>55>05O35>5>5>5>555555555555555$5$5.5$2* ",
"4&y>3y5y53y35>y3O>y5X5y5X>5y>5>55>5O5>O>5>>5>5>5>5.52>2525255$* ",
"7u3O3O3>0y>O350y530>5>05>53555>5>05>5555555555555255$555$55255* ",
"@7O3y3O3y353O3y>O>O>%>y5y5y5>X55O>505>5>5>5>55>55>25>555=55$2$* ",
"77>0>y3O>O3>>535>0>5>50>05>5>5>5>55>555555555>5$55$5$5$5$25552* ",
"u75Xy0y>0>y5Oy5X5>y0y5>>5>53555>5>5>5>>55>5>5555=52525255$2$2$* ",
"7@3O>53O35353>0>0y55>0y55O>5>53O5555555555555t55$555$5>255555o* ",
"7uy3O3y3y3O>y5>O>535>5>0>>5>555>5>5>555>>55>552555$5=55$2$5o55* ",
"7@353y55353535y535>O355O>555>555>555>555555555.55255$255525$5o* ",
"7uy>O>X5y5y5y535>O>55>5>535>O>5>5>55555>55>$=5255.255$2$2$525o* ",
"7&>%>5353>0>0>y5>53O>555>5550555555>5>552555$5$5$552$5555o5o558 ",
"w7O>y3O>y5y5y5>5355>53O>5>O>5>5>5>555555$5=52525255$255o55o55o* ",
"7&5:5*5$5:$5:2:2:9$9$*$*r*o:o9*****o**o*****o*e*e*****e#*e*e#1e ",
"7                                                               "
};
